<svg width="437" height="61" viewBox="0 0 437 61" fill="none" xmlns="http://www.w3.org/2000/svg">
<path d="M0 26.3C0.47 22.57 1.6 19.1 3.4 15.9C5.2 12.7 7.47 9.92 10.2 7.55C12.93 5.18 16.08 3.33 19.65 2C23.22 0.67 27 0 31 0C35 0 38.78 0.67 42.35 2C45.92 3.33 49.08 5.18 51.85 7.55C54.62 9.92 56.88 12.7 58.65 15.9C60.42 19.1 61.53 22.57 62 26.3H51.5C51.03 23.97 50.18 21.8 48.95 19.8C47.72 17.8 46.2 16.08 44.4 14.65C42.6 13.22 40.57 12.08 38.3 11.25C36.03 10.42 33.6 10 31 10C28.47 10 26.05 10.42 23.75 11.25C21.45 12.08 19.4 13.22 17.6 14.65C15.8 16.08 14.28 17.8 13.05 19.8C11.82 21.8 10.97 23.97 10.5 26.3H0ZM62 33.4C61.53 37.13 60.4 40.6 58.6 43.8C56.8 47 54.53 49.77 51.8 52.1C49.07 54.43 45.92 56.28 42.35 57.65C38.78 59.02 35 59.7 31 59.7C27 59.7 23.22 59.02 19.65 57.65C16.08 56.28 12.93 54.43 10.2 52.1C7.47 49.77 5.2 47 3.4 43.8C1.6 40.6 0.47 37.13 0 33.4H10.5C10.97 35.73 11.82 37.9 13.05 39.9C14.28 41.9 15.8 43.62 17.6 45.05C19.4 46.48 21.45 47.62 23.75 48.45C26.05 49.28 28.47 49.7 31 49.7C33.53 49.7 35.95 49.28 38.25 48.45C40.55 47.62 42.6 46.48 44.4 45.05C46.2 43.62 47.72 41.9 48.95 39.9C50.18 37.9 51.03 35.73 51.5 33.4H62Z" fill="#6100FF"/>
<path d="M133.1 0.900391V14.6004L122.6 24.5004L108.5 37.9004L103.8 42.3004L85 24.5004V58.7004H74.5V0.900391L103.85 27.9004L133.1 0.900391ZM122.6 34.4004L133.1 24.5004V58.7004H122.6V34.4004Z" fill="#6100FF"/>
<path d="M183.2 2.90039V11.7004H145.1V2.90039H183.2ZM155.6 49.9004H183.1V58.7004H145.1V25.7004H181.8V34.0004H155.6V49.9004Z" fill="#6100FF"/>
<path d="M235.6 37.7L246.1 47.4V60.6L205.7 23.9V58.7H195.2V1L234.1 36.4L235.6 37.7ZM246.1 2.90001V37.6L235.6 28V2.90001H246.1Z" fill="#6100FF"/>
<path d="M292 48.6996C294.87 48.1696 297.47 47.1296 299.8 45.5996C302.13 44.0696 304.07 42.1696 305.6 39.8996L314 44.9996C311.67 48.5996 308.58 51.5996 304.75 53.9996C300.92 56.3996 296.67 57.8696 292 58.3996C291.4 58.4696 290.8 58.5196 290.2 58.5496C289.6 58.5796 288.97 58.5996 288.3 58.5996C287.7 58.5996 287.12 58.5796 286.55 58.5496C285.98 58.5196 285.4 58.4696 284.8 58.3996C281.07 57.9996 277.57 56.9696 274.3 55.2996C271.03 53.6296 268.2 51.5296 265.8 48.9996C263.4 46.4696 261.52 43.5496 260.15 40.2496C258.78 36.9496 258.1 33.4696 258.1 29.7996C258.1 26.1296 258.78 22.6496 260.15 19.3496C261.52 16.0496 263.4 13.1196 265.8 10.5496C268.2 7.9796 271.03 5.8696 274.3 4.1996C277.57 2.5296 281.07 1.49961 284.8 1.09961V10.6996C282.47 11.0996 280.28 11.8696 278.25 12.9996C276.22 14.1296 274.47 15.5496 273 17.2496C271.53 18.9496 270.38 20.8696 269.55 22.9996C268.72 25.1296 268.3 27.3996 268.3 29.7996C268.3 32.1296 268.72 34.3696 269.55 36.4996C270.38 38.6296 271.53 40.5296 273 42.1996C274.47 43.8696 276.22 45.2696 278.25 46.3996C280.28 47.5296 282.47 48.2996 284.8 48.6996C286 48.8996 287.2 48.9996 288.4 48.9996C289.66 48.9996 290.86 48.8996 292 48.6996ZM305.6 19.4996C304.07 17.2296 302.13 15.3296 299.8 13.7996C297.47 12.2696 294.87 11.2296 292 10.6996V1.1996C296.67 1.7296 300.92 3.1696 304.75 5.4996C308.58 7.8296 311.67 10.7996 314 14.3996L305.6 19.4996Z" fill="#6100FF"/>
<path d="M330.4 42.8996C331.4 44.6296 332.9 46.2196 334.9 47.6496C336.9 49.0796 339.07 49.9996 341.4 50.3996V59.5996C336.8 59.2696 332.73 57.9296 329.2 55.5996C325.67 53.2696 322.93 50.3996 321 46.9996L330.4 42.8996ZM348.6 25.7996C350.93 26.5996 353.15 27.4796 355.25 28.4496C357.35 29.4196 359.18 30.5696 360.75 31.8996C362.32 33.2296 363.57 34.7796 364.5 36.5496C365.43 38.3196 365.9 40.3296 365.9 42.5996C365.9 47.1296 364.28 50.8196 361.05 53.6496C357.82 56.4796 353.67 58.2996 348.6 59.0996V49.6996C350.53 49.1696 352.15 48.2696 353.45 46.9996C354.75 45.7296 355.4 44.1296 355.4 42.1996C355.4 40.5296 354.73 39.1296 353.4 37.9996C352.07 36.8696 350.47 35.9296 348.6 35.1996C347.8 34.8696 346.97 34.5696 346.1 34.2996C345.23 34.0296 344.37 33.7696 343.5 33.4996C343.17 33.4296 342.82 33.3496 342.45 33.2496C342.08 33.1496 341.73 33.0296 341.4 32.8996C339.07 32.2296 336.78 31.4196 334.55 30.4496C332.32 29.4796 330.35 28.3696 328.65 27.0996C326.95 25.8296 325.58 24.3996 324.55 22.7996C323.52 21.1996 323 19.3996 323 17.3996C323 15.1296 323.47 13.0196 324.4 11.0496C325.33 9.0796 326.62 7.3296 328.25 5.7996C329.88 4.2696 331.82 3.0196 334.05 2.0496C336.28 1.0796 338.73 0.429609 341.4 0.0996094V9.2996C339.27 9.7696 337.45 10.6696 335.95 11.9996C334.45 13.3296 333.7 14.9696 333.7 16.8996C333.7 18.5696 334.45 19.8996 335.95 20.8996C337.45 21.8996 339.27 22.7696 341.4 23.4996C341.93 23.6996 342.47 23.8796 343 24.0496C343.53 24.2196 344.07 24.3696 344.6 24.4996C345.33 24.6996 346.02 24.8996 346.65 25.0996C347.28 25.2996 347.93 25.5396 348.6 25.7996ZM348.6 0.299606C352.4 0.829606 355.65 2.0496 358.35 3.9496C361.05 5.8496 363.07 8.06961 364.4 10.5996L355.4 14.5996C353.6 12.0696 351.33 10.3696 348.6 9.4996V0.299606Z" fill="#6100FF"/>
<path d="M387.39 42.8996C388.39 44.6296 389.89 46.2196 391.89 47.6496C393.89 49.0796 396.06 49.9996 398.39 50.3996V59.5996C393.79 59.2696 389.72 57.9296 386.19 55.5996C382.66 53.2696 379.92 50.3996 377.99 46.9996L387.39 42.8996ZM405.59 25.7996C407.92 26.5996 410.14 27.4796 412.24 28.4496C414.34 29.4196 416.17 30.5696 417.74 31.8996C419.31 33.2296 420.56 34.7796 421.49 36.5496C422.42 38.3196 422.89 40.3296 422.89 42.5996C422.89 47.1296 421.27 50.8196 418.04 53.6496C414.81 56.4796 410.66 58.2996 405.59 59.0996V49.6996C407.52 49.1696 409.14 48.2696 410.44 46.9996C411.74 45.7296 412.39 44.1296 412.39 42.1996C412.39 40.5296 411.72 39.1296 410.39 37.9996C409.06 36.8696 407.46 35.9296 405.59 35.1996C404.79 34.8696 403.96 34.5696 403.09 34.2996C402.22 34.0296 401.36 33.7696 400.49 33.4996C400.16 33.4296 399.81 33.3496 399.44 33.2496C399.07 33.1496 398.72 33.0296 398.39 32.8996C396.06 32.2296 393.77 31.4196 391.54 30.4496C389.31 29.4796 387.34 28.3696 385.64 27.0996C383.94 25.8296 382.57 24.3996 381.54 22.7996C380.51 21.1996 379.99 19.3996 379.99 17.3996C379.99 15.1296 380.46 13.0196 381.39 11.0496C382.32 9.0796 383.61 7.3296 385.24 5.7996C386.87 4.2696 388.81 3.0196 391.04 2.0496C393.27 1.0796 395.72 0.429609 398.39 0.0996094V9.2996C396.26 9.7696 394.44 10.6696 392.94 11.9996C391.44 13.3296 390.69 14.9696 390.69 16.8996C390.69 18.5696 391.44 19.8996 392.94 20.8996C394.44 21.8996 396.26 22.7696 398.39 23.4996C398.92 23.6996 399.46 23.8796 399.99 24.0496C400.52 24.2196 401.06 24.3696 401.59 24.4996C402.32 24.6996 403.01 24.8996 403.64 25.0996C404.28 25.2996 404.93 25.5396 405.59 25.7996ZM405.59 0.299606C409.39 0.829606 412.64 2.0496 415.34 3.9496C418.04 5.8496 420.06 8.06961 421.39 10.5996L412.39 14.5996C410.59 12.0696 408.32 10.3696 405.59 9.4996V0.299606Z" fill="#6100FF"/>
</svg>
