<svg width="437" height="61" viewBox="0 0 437 61" fill="none" xmlns="http://www.w3.org/2000/svg">
<path d="M0 26.3C0.47 22.57 1.6 19.1 3.4 15.9C5.2 12.7 7.47 9.92 10.2 7.55C12.93 5.18 16.08 3.33 19.65 2C23.22 0.67 27 0 31 0C35 0 38.78 0.67 42.35 2C45.92 3.33 49.08 5.18 51.85 7.55C54.62 9.92 56.88 12.7 58.65 15.9C60.42 19.1 61.53 22.57 62 26.3H51.5C51.03 23.97 50.18 21.8 48.95 19.8C47.72 17.8 46.2 16.08 44.4 14.65C42.6 13.22 40.57 12.08 38.3 11.25C36.03 10.42 33.6 10 31 10C28.47 10 26.05 10.42 23.75 11.25C21.45 12.08 19.4 13.22 17.6 14.65C15.8 16.08 14.28 17.8 13.05 19.8C11.82 21.8 10.97 23.97 10.5 26.3H0ZM62 33.4C61.53 37.13 60.4 40.6 58.6 43.8C56.8 47 54.53 49.77 51.8 52.1C49.07 54.43 45.92 56.28 42.35 57.65C38.78 59.02 35 59.7 31 59.7C27 59.7 23.22 59.02 19.65 57.65C16.08 56.28 12.93 54.43 10.2 52.1C7.47 49.77 5.2 47 3.4 43.8C1.6 40.6 0.47 37.13 0 33.4H10.5C10.97 35.73 11.82 37.9 13.05 39.9C14.28 41.9 15.8 43.62 17.6 45.05C19.4 46.48 21.45 47.62 23.75 48.45C26.05 49.28 28.47 49.7 31 49.7C33.53 49.7 35.95 49.28 38.25 48.45C40.55 47.62 42.6 46.48 44.4 45.05C46.2 43.62 47.72 41.9 48.95 39.9C50.18 37.9 51.03 35.73 51.5 33.4H62Z" fill="#CFCCF9"/>
<path d="M133.1 0.899902V14.5999L122.6 24.4999L108.5 37.8999L103.8 42.2999L85 24.4999V58.6999H74.5V0.899902L103.85 27.8999L133.1 0.899902ZM122.6 34.3999L133.1 24.4999V58.6999H122.6V34.3999Z" fill="#CFCCF9"/>
<path d="M183.2 2.8999V11.6999H145.1V2.8999H183.2ZM155.6 49.8999H183.1V58.6999H145.1V25.6999H181.8V33.9999H155.6V49.8999Z" fill="#CFCCF9"/>
<path d="M235.6 37.7L246.1 47.4V60.6L205.7 23.9V58.7H195.2V1L234.1 36.4L235.6 37.7ZM246.1 2.90001V37.6L235.6 28V2.90001H246.1Z" fill="#CFCCF9"/>
<path d="M292 48.7001C294.87 48.1701 297.47 47.1301 299.8 45.6001C302.13 44.0701 304.07 42.1701 305.6 39.9001L314 45.0001C311.67 48.6001 308.58 51.6001 304.75 54.0001C300.92 56.4001 296.67 57.8701 292 58.4001C291.4 58.4701 290.8 58.5201 290.2 58.5501C289.6 58.5801 288.97 58.6001 288.3 58.6001C287.7 58.6001 287.12 58.5801 286.55 58.5501C285.98 58.5201 285.4 58.4701 284.8 58.4001C281.07 58.0001 277.57 56.9701 274.3 55.3001C271.03 53.6301 268.2 51.5301 265.8 49.0001C263.4 46.4701 261.52 43.5501 260.15 40.2501C258.78 36.9501 258.1 33.4701 258.1 29.8001C258.1 26.1301 258.78 22.6501 260.15 19.3501C261.52 16.0501 263.4 13.1201 265.8 10.5501C268.2 7.98009 271.03 5.87009 274.3 4.20009C277.57 2.53009 281.07 1.5001 284.8 1.1001V10.7001C282.47 11.1001 280.28 11.8701 278.25 13.0001C276.22 14.1301 274.47 15.5501 273 17.2501C271.53 18.9501 270.38 20.8701 269.55 23.0001C268.72 25.1301 268.3 27.4001 268.3 29.8001C268.3 32.1301 268.72 34.3701 269.55 36.5001C270.38 38.6301 271.53 40.5301 273 42.2001C274.47 43.8701 276.22 45.2701 278.25 46.4001C280.28 47.5301 282.47 48.3001 284.8 48.7001C286 48.9001 287.2 49.0001 288.4 49.0001C289.66 49.0001 290.86 48.9001 292 48.7001ZM305.6 19.5001C304.07 17.2301 302.13 15.3301 299.8 13.8001C297.47 12.2701 294.87 11.2301 292 10.7001V1.20009C296.67 1.73009 300.92 3.17009 304.75 5.50009C308.58 7.83009 311.67 10.8001 314 14.4001L305.6 19.5001Z" fill="#CFCCF9"/>
<path d="M330.4 42.9001C331.4 44.6301 332.9 46.2201 334.9 47.6501C336.9 49.0801 339.07 50.0001 341.4 50.4001V59.6001C336.8 59.2701 332.73 57.9301 329.2 55.6001C325.67 53.2701 322.93 50.4001 321 47.0001L330.4 42.9001ZM348.6 25.8001C350.93 26.6001 353.15 27.4801 355.25 28.4501C357.35 29.4201 359.18 30.5701 360.75 31.9001C362.32 33.2301 363.57 34.7801 364.5 36.5501C365.43 38.3201 365.9 40.3301 365.9 42.6001C365.9 47.1301 364.28 50.8201 361.05 53.6501C357.82 56.4801 353.67 58.3001 348.6 59.1001V49.7001C350.53 49.1701 352.15 48.2701 353.45 47.0001C354.75 45.7301 355.4 44.1301 355.4 42.2001C355.4 40.5301 354.73 39.1301 353.4 38.0001C352.07 36.8701 350.47 35.9301 348.6 35.2001C347.8 34.8701 346.97 34.5701 346.1 34.3001C345.23 34.0301 344.37 33.7701 343.5 33.5001C343.17 33.4301 342.82 33.3501 342.45 33.2501C342.08 33.1501 341.73 33.0301 341.4 32.9001C339.07 32.2301 336.78 31.4201 334.55 30.4501C332.32 29.4801 330.35 28.3701 328.65 27.1001C326.95 25.8301 325.58 24.4001 324.55 22.8001C323.52 21.2001 323 19.4001 323 17.4001C323 15.1301 323.47 13.0201 324.4 11.0501C325.33 9.08009 326.62 7.33009 328.25 5.80009C329.88 4.27009 331.82 3.02009 334.05 2.05009C336.28 1.08009 338.73 0.430098 341.4 0.100098V9.30009C339.27 9.77009 337.45 10.6701 335.95 12.0001C334.45 13.3301 333.7 14.9701 333.7 16.9001C333.7 18.5701 334.45 19.9001 335.95 20.9001C337.45 21.9001 339.27 22.7701 341.4 23.5001C341.93 23.7001 342.47 23.8801 343 24.0501C343.53 24.2201 344.07 24.3701 344.6 24.5001C345.33 24.7001 346.02 24.9001 346.65 25.1001C347.28 25.3001 347.93 25.5401 348.6 25.8001ZM348.6 0.300095C352.4 0.830095 355.65 2.05009 358.35 3.95009C361.05 5.85009 363.07 8.0701 364.4 10.6001L355.4 14.6001C353.6 12.0701 351.33 10.3701 348.6 9.50009V0.300095Z" fill="#CFCCF9"/>
<path d="M387.39 42.9001C388.39 44.6301 389.89 46.2201 391.89 47.6501C393.89 49.0801 396.06 50.0001 398.39 50.4001V59.6001C393.79 59.2701 389.72 57.9301 386.19 55.6001C382.66 53.2701 379.92 50.4001 377.99 47.0001L387.39 42.9001ZM405.59 25.8001C407.92 26.6001 410.14 27.4801 412.24 28.4501C414.34 29.4201 416.17 30.5701 417.74 31.9001C419.31 33.2301 420.56 34.7801 421.49 36.5501C422.42 38.3201 422.89 40.3301 422.89 42.6001C422.89 47.1301 421.27 50.8201 418.04 53.6501C414.81 56.4801 410.66 58.3001 405.59 59.1001V49.7001C407.52 49.1701 409.14 48.2701 410.44 47.0001C411.74 45.7301 412.39 44.1301 412.39 42.2001C412.39 40.5301 411.72 39.1301 410.39 38.0001C409.06 36.8701 407.46 35.9301 405.59 35.2001C404.79 34.8701 403.96 34.5701 403.09 34.3001C402.22 34.0301 401.36 33.7701 400.49 33.5001C400.16 33.4301 399.81 33.3501 399.44 33.2501C399.07 33.1501 398.72 33.0301 398.39 32.9001C396.06 32.2301 393.77 31.4201 391.54 30.4501C389.31 29.4801 387.34 28.3701 385.64 27.1001C383.94 25.8301 382.57 24.4001 381.54 22.8001C380.51 21.2001 379.99 19.4001 379.99 17.4001C379.99 15.1301 380.46 13.0201 381.39 11.0501C382.32 9.08009 383.61 7.33009 385.24 5.80009C386.87 4.27009 388.81 3.02009 391.04 2.05009C393.27 1.08009 395.72 0.430098 398.39 0.100098V9.30009C396.26 9.77009 394.44 10.6701 392.94 12.0001C391.44 13.3301 390.69 14.9701 390.69 16.9001C390.69 18.5701 391.44 19.9001 392.94 20.9001C394.44 21.9001 396.26 22.7701 398.39 23.5001C398.92 23.7001 399.46 23.8801 399.99 24.0501C400.52 24.2201 401.06 24.3701 401.59 24.5001C402.32 24.7001 403.01 24.9001 403.64 25.1001C404.28 25.3001 404.93 25.5401 405.59 25.8001ZM405.59 0.300095C409.39 0.830095 412.64 2.05009 415.34 3.95009C418.04 5.85009 420.06 8.0701 421.39 10.6001L412.39 14.6001C410.59 12.0701 408.32 10.3701 405.59 9.50009V0.300095Z" fill="#CFCCF9"/>
</svg>
