<svg width="1542" height="1024" viewBox="0 0 1542 1024" fill="none" xmlns="http://www.w3.org/2000/svg">
<g clip-path="url(#clip0_224_1851)">
<rect width="1542" height="1024" fill="#FDFDFD"/>
<mask id="mask0_224_1851" style="mask-type:alpha" maskUnits="userSpaceOnUse" x="1043" y="-554" width="1180" height="3290">
<path d="M1816.28 2287.72C1725.16 2337.35 1643.61 2354.81 1571.63 2340.11C1500.21 2326.06 1439.54 2286.75 1389.61 2222.21C1339.69 2157.66 1745.96 2826.02 1720.01 2725.72L1693.73 2222.21C1707.17 2258.39 1557.56 1830.45 1579.53 1856.31C1601.49 1882.18 1627.99 1898.01 1659.04 1903.79C1690.65 1910.22 1726.93 1902.28 1767.86 1879.99C1829.05 1846.66 1875.38 1789.27 1906.84 1707.82C1938.87 1627.01 1945.41 1517.04 1926.47 1377.93L1875.94 1006.81L1864.06 1013.29C1859.4 1076.35 1848.17 1139.69 1830.35 1203.3C1812.53 1266.92 1786.41 1325.12 1751.99 1377.92C1717.57 1430.72 1673.51 1471.74 1619.81 1500.99C1543.65 1542.47 1469.53 1545.02 1397.43 1508.63C1325.65 1471.12 1261.33 1389.36 1204.45 1263.34C1147.9 1136.2 1104.33 960.375 1073.77 735.856C1042.48 506.055 1035.05 303.923 1051.49 129.461C1067.93 -45.0014 1101.97 -187.437 1153.61 -297.845C1205.69 -408.493 1268.92 -484.078 1343.31 -524.6C1400.1 -555.53 1450.28 -562.055 1493.85 -544.175C1537.3 -527.175 1574.58 -496.414 1605.71 -451.892C1637.15 -408.49 1662.97 -362.971 1683.17 -315.336L1693.73 -321.09L1864.06 1013.29L1803.14 664.853L2205.53 1234.44C2229.03 1407.01 2227.56 1562.91 2201.12 1702.15C2174.69 1841.39 2128.01 1960.45 2061.09 2059.32C1994.73 2158.83 1913.13 2234.97 1816.28 2287.72ZM1651.4 1029.81C1696.74 1005.12 1731.98 961.806 1757.12 899.878C1782.58 836.831 1797.92 758.489 1803.14 664.853C1808.68 570.096 1803.36 463.287 1787.18 344.424C1770.99 225.561 1748.61 127.102 1720.01 49.0476C1691.3 -29.8877 1657.8 -84.9364 1619.51 -116.098C1581.22 -147.26 1539.41 -150.493 1494.07 -125.796C1447.85 -100.62 1412.31 -54.3072 1387.45 13.1429C1362.47 79.7126 1347.83 161.457 1343.53 258.375C1339.23 355.293 1344.93 461.422 1360.63 576.763C1376.58 693.865 1398.5 790.683 1426.42 867.217C1454.65 942.63 1487.58 995.157 1525.18 1024.8C1563.11 1053.32 1605.18 1054.99 1651.4 1029.81Z" fill="#3E7A02"/>
</mask>
<g mask="url(#mask0_224_1851)">
<rect x="1037.65" y="-77.2227" width="504.571" height="2189.33" fill="#3E7A02"/>
<rect x="842.027" y="-77.2227" width="504.571" height="2189.33" fill="#3E7A02"/>
</g>
<mask id="mask1_224_1851" style="mask-type:alpha" maskUnits="userSpaceOnUse" x="-496" y="-554" width="1970" height="3426">
<path d="M182.041 2405.18C334.279 2456.87 470.529 2475.06 590.791 2459.75C710.117 2445.11 811.486 2404.18 894.898 2336.97C978.309 2269.76 299.532 2965.74 342.888 2861.3L386.794 2336.97C364.343 2374.65 614.297 1929.01 577.603 1955.95C540.91 1982.89 496.625 1999.37 444.749 2005.39C391.938 2012.08 331.334 2003.82 262.938 1980.6C160.71 1945.89 83.3112 1886.13 30.74 1801.31C-22.767 1717.16 -33.6983 1602.65 -2.05394 1457.79L82.3643 1071.33L102.221 1078.07C109.996 1143.74 128.768 1209.7 158.537 1275.95C188.306 1342.19 231.945 1402.8 289.455 1457.78C346.964 1512.76 420.581 1555.48 510.305 1585.94C637.538 1629.14 761.382 1631.79 881.839 1593.89C1001.76 1554.83 1109.23 1469.69 1204.26 1338.46C1298.75 1206.07 1371.53 1022.98 1422.6 789.176C1474.87 549.875 1487.27 339.387 1459.81 157.713C1432.35 -23.9608 1375.48 -172.284 1289.2 -287.256C1202.19 -402.478 1096.54 -481.188 972.254 -523.384C877.381 -555.594 793.547 -562.388 720.75 -543.769C648.154 -526.067 585.858 -494.034 533.861 -447.671C481.329 -402.475 438.19 -355.074 404.445 -305.47L386.794 -311.462L102.221 1078.07L203.995 715.237L-468.292 1308.37C-507.547 1488.07 -505.091 1650.42 -460.925 1795.42C-416.759 1940.41 -338.773 2064.39 -226.965 2167.35C-116.093 2270.98 20.2422 2350.25 182.041 2405.18ZM457.512 1095.29C381.761 1069.57 322.884 1024.47 280.882 959.978C238.344 894.324 212.715 812.744 203.995 715.237C194.74 616.564 203.631 505.339 230.669 381.563C257.707 257.786 295.113 155.257 342.888 73.976C390.863 -8.22225 446.834 -65.5465 510.802 -97.9966C574.77 -130.447 644.629 -133.813 720.38 -108.096C797.602 -81.8788 856.981 -33.6512 898.518 36.5871C940.254 105.909 964.714 191.032 971.898 291.956C979.081 392.881 969.555 503.397 943.318 623.506C916.681 745.449 880.043 846.269 833.404 925.966C786.23 1004.5 731.227 1059.2 668.395 1090.06C605.028 1119.76 534.734 1121.5 457.512 1095.29Z" fill="#3E7A02" fill-opacity="0.5"/>
</mask>
<g mask="url(#mask1_224_1851)">
<rect width="843.01" height="2279.83" transform="matrix(-1 0 0 1 1482.93 -57.5117)" fill="#3E7A02" fill-opacity="0.5"/>
</g>
</g>
<defs>
<clipPath id="clip0_224_1851">
<rect width="1542" height="1024" fill="#FDFDFD"/>
</clipPath>
</defs>
</svg>
