<svg width="401" height="400" viewBox="0 0 401 400" fill="none" xmlns="http://www.w3.org/2000/svg">
<rect width="400.526" height="399.246" rx="100" fill="#101010"/>
<path d="M95 188.37C96.5959 176.546 100.433 165.546 106.545 155.402C112.657 145.258 120.365 136.446 129.635 128.933C138.905 121.42 149.601 115.556 161.723 111.34C173.846 107.124 186.681 105 200.263 105C213.846 105 226.681 107.124 238.803 111.34C250.925 115.556 261.655 121.42 271.061 128.933C280.467 136.446 288.141 145.258 294.151 155.402C300.161 165.546 303.93 176.546 305.526 188.37H269.873C268.277 180.984 265.391 174.105 261.214 167.765C257.037 161.425 251.876 155.973 245.764 151.44C239.652 146.907 232.759 143.293 225.051 140.662C217.343 138.031 209.092 136.699 200.263 136.699C191.672 136.699 183.455 138.031 175.645 140.662C167.835 143.293 160.874 146.907 154.762 151.44C148.65 155.973 143.489 161.425 139.312 167.765C135.136 174.105 132.25 180.984 130.654 188.37H95ZM305.526 210.876C303.93 222.7 300.093 233.7 293.981 243.844C287.869 253.987 280.161 262.768 270.891 270.154C261.621 277.54 250.925 283.404 238.803 287.747C226.681 292.09 213.846 294.246 200.263 294.246C186.681 294.246 173.846 292.09 161.723 287.747C149.601 283.404 138.905 277.54 129.635 270.154C120.365 262.768 112.657 253.987 106.545 243.844C100.433 233.7 96.5959 222.7 95 210.876H130.654C132.25 218.262 135.136 225.141 139.312 231.481C143.489 237.821 148.65 243.273 154.762 247.806C160.874 252.339 167.835 255.953 175.645 258.584C183.455 261.215 191.672 262.546 200.263 262.546C208.854 262.546 217.071 261.215 224.881 258.584C232.691 255.953 239.652 252.339 245.764 247.806C251.876 243.273 257.037 237.821 261.214 231.481C265.391 225.141 268.277 218.262 269.873 210.876H305.526Z" fill="#F7F7F8"/>
</svg>
