<svg width="400" height="400" viewBox="0 0 400 400" fill="none" xmlns="http://www.w3.org/2000/svg">
<rect width="400" height="400" rx="50" fill="#101010"/>
<g clip-path="url(#clip0_1_1140)">
<path fill-rule="evenodd" clip-rule="evenodd" d="M74.9998 349.999C163.77 342.245 211.688 300.065 287.661 166.378C287.661 166.378 187.175 353.778 85.9322 340.224L75.0004 349.999H74.9998Z" fill="#80F906"/>
<path fill-rule="evenodd" clip-rule="evenodd" d="M324.5 49.9999C299.501 111.938 250.336 154.794 213.39 188.434C194.916 205.254 178.661 221.414 169.218 241.08C159.775 260.747 157.534 284.749 166.321 314.659L172.844 315.861C172.844 315.861 172.152 311.992 171.994 311.435C181.112 312.94 216.235 315.723 250.915 288.321C291.112 256.562 329.32 191.594 324.5 49.9999ZM318.714 64.7595C319.965 193.568 283.73 254.936 246.922 284.021C211.529 311.985 176.99 310.636 171.563 310.25C163.763 282.329 166.146 261.426 174.824 243.356C183.714 224.841 199.341 209.163 217.692 192.455C251.549 161.63 294.487 127.261 318.72 64.7637L318.714 64.7595Z" fill="#80F906"/>
</g>
<defs>
<clipPath id="clip0_1_1140">
<rect width="250" height="300" fill="white" transform="translate(75 50)"/>
</clipPath>
</defs>
</svg>
