<svg width="400" height="501" viewBox="0 0 400 501" fill="none" xmlns="http://www.w3.org/2000/svg">
<rect x="0.5" y="0.5" width="399" height="399" rx="99.5" fill="#FDFDFD" stroke="#101010"/>
<path fill-rule="evenodd" clip-rule="evenodd" d="M207.046 500.166C270.321 456.193 311.744 382.976 311.744 300.083C311.744 217.19 270.321 143.973 207.046 100C143.771 143.973 102.348 217.19 102.348 300.083C102.348 382.976 143.771 456.193 207.046 500.166Z" fill="#101010" fill-opacity="0.2"/>
<mask id="path-3-inside-1_46_596" fill="white">
<path fill-rule="evenodd" clip-rule="evenodd" d="M192.698 500.166C255.973 456.193 297.395 382.976 297.395 300.083C297.395 217.19 255.973 143.973 192.698 100C129.423 143.973 88 217.19 88 300.083C88 382.976 129.423 456.193 192.698 500.166Z"/>
</mask>
<path fill-rule="evenodd" clip-rule="evenodd" d="M192.698 500.166C255.973 456.193 297.395 382.976 297.395 300.083C297.395 217.19 255.973 143.973 192.698 100C129.423 143.973 88 217.19 88 300.083C88 382.976 129.423 456.193 192.698 500.166Z" fill="#3E7A02"/>
<path d="M192.698 500.166L189.844 504.272L192.698 506.255L195.551 504.272L192.698 500.166ZM192.698 100L195.551 95.8941L192.698 93.9112L189.844 95.8941L192.698 100ZM292.395 300.083C292.395 381.269 251.832 452.982 189.844 496.06L195.551 504.272C260.113 459.405 302.395 384.682 302.395 300.083H292.395ZM189.844 104.106C251.832 147.184 292.395 218.897 292.395 300.083H302.395C302.395 215.484 260.113 140.761 195.551 95.8941L189.844 104.106ZM93 300.083C93 218.897 133.563 147.184 195.551 104.106L189.844 95.8941C125.282 140.761 83 215.484 83 300.083H93ZM195.551 496.06C133.563 452.982 93 381.269 93 300.083H83C83 384.682 125.282 459.405 189.844 504.272L195.551 496.06Z" fill="#101010" mask="url(#path-3-inside-1_46_596)"/>
<path d="M193 109L197 494H189L193 109Z" fill="#101010"/>
<path fill-rule="evenodd" clip-rule="evenodd" d="M190.498 498.144C252.266 453.982 292.526 381.664 292.526 299.943C292.526 219.297 253.318 147.808 192.924 103.499L190.498 498.144Z" fill="#101010" fill-opacity="0.3"/>
<path d="M143.165 195.319C123.397 232.263 107.134 273.654 104.583 272.289C104.583 272.289 111.189 229.149 130.956 192.206C150.724 155.262 181.839 129.454 181.839 129.454C184.39 130.819 162.933 158.376 143.165 195.319Z" fill="#FDFDFD"/>
</svg>
