<svg width="400" height="400" viewBox="0 0 400 400" fill="none" xmlns="http://www.w3.org/2000/svg">
<rect width="400" height="400" rx="100" fill="#F7F7F8"/>
<path d="M94.7368 188.633C96.3327 176.809 100.17 165.809 106.282 155.665C112.394 145.521 120.102 136.709 129.372 129.196C138.642 121.683 149.338 115.819 161.46 111.603C173.582 107.387 186.418 105.263 200 105.263C213.582 105.263 226.418 107.387 238.54 111.603C250.662 115.819 261.392 121.683 270.798 129.196C280.204 136.709 287.878 145.521 293.888 155.665C299.898 165.809 303.667 176.809 305.263 188.633H269.609C268.014 181.247 265.127 174.368 260.951 168.028C256.774 161.688 251.613 156.236 245.501 151.703C239.389 147.17 232.496 143.556 224.788 140.925C217.08 138.294 208.829 136.963 200 136.963C191.409 136.963 183.192 138.294 175.382 140.925C167.572 143.556 160.611 147.17 154.499 151.703C148.387 156.236 143.226 161.688 139.049 168.028C134.873 174.368 131.986 181.247 130.39 188.633H94.7368ZM305.263 211.139C303.667 222.963 299.83 233.963 293.718 244.107C287.606 254.251 279.898 263.031 270.628 270.417C261.358 277.803 250.662 283.668 238.54 288.01C226.418 292.353 213.582 294.509 200 294.509C186.418 294.509 173.582 292.353 161.46 288.01C149.338 283.668 138.642 277.803 129.372 270.417C120.102 263.031 112.394 254.251 106.282 244.107C100.17 233.963 96.3327 222.963 94.7368 211.139H130.39C131.986 218.525 134.873 225.404 139.049 231.744C143.226 238.084 148.387 243.536 154.499 248.069C160.611 252.602 167.572 256.216 175.382 258.847C183.192 261.478 191.409 262.809 200 262.809C208.591 262.809 216.808 261.478 224.618 258.847C232.428 256.216 239.389 252.602 245.501 248.069C251.613 243.536 256.774 238.084 260.951 231.744C265.127 225.404 268.014 218.525 269.609 211.139H305.263Z" fill="#101010"/>
</svg>
